<svg xmlns="http://www.w3.org/2000/svg" viewBox="0 0 512 512">
  <rect width="512" height="512" rx="104" fill="#f9f1da"/>
  <g transform="translate(-163.2,-33.4) scale(0.3836)">
    <g>
    <path fill="#57390e" d="M1501.59,765.31c-1.15,9.48,.95,17.78,2.46,26.06,4.14,22.82,10.07,45.19,17.21,67.26,6.86,21.2,11.89,42.82,13.72,65.09,4.03,49.02-5.14,95.37-30.88,137.42-20.56,33.58-49.34,58.29-87.07,71.48-7.58,2.65-15.23,5.17-23.01,7.13-10.23,2.59-19.38,7.03-28.19,12.83-20.24,13.33-41.91,23.75-65.56,29.64-22.66,5.64-45.53,7.66-68.93,5.73-44.59-3.68-86.02-17.06-125.04-38.56-6.45-3.55-13.48-6.18-17.24-13.12-.62-1.15-.6-2.66-1.07-4.96,2.35-.49,4.48-.84,6.57-1.38,15.62-4,30.67-8.88,42.35-21.11,4.75-4.98,11.63-7.95,16.29-12.99,13-14.02,22.72-30.14,28.01-48.69,.1-.33-.37-.83-.97-2.09-11.74,5.67-21.77,14.19-33.23,20.2-11.3,5.93-22.51,12.05-33.98,17.64-11.89,5.79-23.89,11.4-36.11,16.43-11.79,4.85-23.79,9.26-35.93,13.11-12.58,3.99-25.44,7.08-38.1,10.53-1.33,3.37,1.44,4.16,3.21,5.38,35.12,24.13,59.34,56.55,72.72,96.86,11.53,34.76,17.3,70.68,19.37,107.18,.4,7.02-.08,14.24-1.34,21.15-1.71,9.4-8.44,13.35-17.87,11.07-5.49-1.33-11-3.02-16.13-5.35-20.22-9.18-40.48-18.31-60.38-28.15-47.26-23.37-75.26-61.89-87.34-112.63-2.06-8.65-4.05-17.33-6.15-26.32-9.06-1.44-17.4-2-26.05-2.41-1.65,4.21-3.1,7.65-4.36,11.15-18.03,50.06-53.55,81.47-104.04,96.17-28.45,8.28-57.68,10.21-87.18,6.87-2.82-.32-5.69-.55-8.4-1.32-9.09-2.6-13.02-9.53-10.3-18.56,.92-3.04,2.49-6.21,4.63-8.51,10.78-11.6,17.23-25.69,23.76-39.78,5.93-12.81,11.42-25.86,18.04-38.3,7.07-13.3,14.93-26.2,23.08-38.87,2.71-4.22,7.05-7.67,11.27-10.57,3.48-2.4,6.04-5.23,10.17-9.6-4.15-.24-6.28-.5-8.4-.47-41.98,.49-81.48-9.19-118.54-28.85-4.97-2.64-9.94-5.29-14.87-8-4.26-2.34-9.53-3.89-12.44-7.38-3.81-4.57-9.44-5.95-13.29-9.9-5.89-6.04-11.62-12.25-17.18-18.6-4.04-4.62-7.59-9.67-11.57-14.35-3.11-3.67-5.48-7.49-4.94-13.23,2.21-.56,4.36-1.47,6.56-1.62,17.92-1.27,32.51-8.7,46.47-20.28,15.3-12.68,22.65-28.33,26.26-46.84,.84-4.3,.46-8.03-1.58-12.21-6.56-13.47-12.75-27.14-18.53-40.96-8.6-20.58-14.3-42.07-18.07-64.02-5.7-33.12-3.44-65.99,4.07-98.58,2.65-11.51,5.78-22.92,8.62-34.39,.55-2.23,.76-4.53,1.16-7.02-6.61-3.55-15.16-5.14-13.25-15.77,5-1.08,9.97-2.14,15.17-3.26,2.74-11.1,1.92-21.96,.39-32.63-1.94-13.56-4.98-26.96-7.25-40.48-.82-4.89-2.82-9.07-5.96-12.64-9.59-10.92-17.45-23.21-24.18-35.81-32.49-60.84-36.74-123.15-6.85-186.41,4.57-9.68,9.97-19,15.42-28.23,2.11-3.57,5.53-6.34,8.18-9.61,14.71-18.17,31.89-33.64,51.42-46.41,4.55-2.98,8.15-7.05,13.53-9.31,3.47-1.46,7.02-5.44,8.94-10,9.94-23.57,25.76-42.55,45.8-58.34,5.36-4.22,10.55-8.04,16.81-11.11,24.84-12.18,32.25-15.26,56.06-21.51,11.87-3.12,23.57-6.93,35.27-10.65,34.25-10.89,68.75-20.77,104.2-27.1,28.94-5.17,58.05-7.94,87.46-8.5,70.91-1.33,139.38,10.32,205.08,37.37,32.85,13.52,64.07,30.18,93.01,50.71,14.96,10.62,29.28,22.32,42.88,34.65,21.37,19.37,41.86,39.82,59.52,62.66,12.98,16.78,24.76,34.57,36.04,52.56,17.55,27.98,33.81,56.76,51.36,84.73,22.31,35.58,45.41,70.67,73.52,102.12,8.51,9.52,16.76,19.28,25.59,28.48,5.52,5.75,11.98,10.6,17.91,15.98,5.57,5.05,10.99,10.26,15.95,14.9,.14,7.66-2.71,13.15-5.63,18.5-7.04,12.89-15.73,24.64-25.09,35.94-24.43,29.47-53.98,52.78-86.62,72.43-5.25,3.16-10.36,6.53-16.37,10.33Zm-372.31-257.97c1.84-.58,3.19-.86,4.41-1.43,13.8-6.34,23.29-4.18,32.3,7.56,7.7,10.04,9.45,21.5,7.29,33.64-2.27,12.71-11.02,21.09-23.78,22.9-3.16,.45-6.44,.07-10.48,.07,0,4.55-.16,8.28,.02,11.99,2.62,53.62-.38,106.84-10.94,159.56-.82,4.07-.82,8.3-1.18,12.22,3.28,2.44,5.99,4.33,8.56,6.39,5.77,4.63,8.97,10.83,10.8,17.89,4.49,17.28-7.99,40.47-29.49,39.35-2.7-.14-5.44,.57-7.81,.85-.61,1.59-1,2.45-1.28,3.34-26.3,83.64-62.92,162.08-116.67,231.93-.59,.76-.07,2.37-.07,4.8,2.83-1.59,4.96-2.4,6.6-3.78,5.78-4.88,11.59-9.76,17.05-14.99,55.6-53.19,99.38-115.18,135.45-182.8,24.09-45.16,42.75-92.69,60.3-140.67,1.62-4.43,3.32-8.85,5.23-13.16,.98-2.2,2.6-3.97,6.17-2.18,0,4.3,.48,9.02-.1,13.6-1.13,8.9-2.6,17.78-4.39,26.57-8.65,42.38-23.04,82.84-41.8,121.74-22.67,47-49.98,91.09-83.59,131.15-3.02,3.61-5.64,7.56-8.32,11.44-.34,.49,.12,1.52,.34,3.48,3.69-2.69,7.16-4.83,10.16-7.49,5.6-4.98,10.38-11.08,16.5-15.21,6.75-4.56,10.85-11.54,17.23-16.27,6.01-4.45,12.24-8.7,17.69-13.76,25.66-23.87,49.74-49.28,72.77-75.69,9.33-10.7,18.41-21.61,27.69-32.35,1.78-2.06,3.54-4.59,7.96-3.22-.19,1.94,.16,4.33-.68,6.16-4.17,8.99-8.13,18.16-13.17,26.66-7.23,12.2-15.36,23.86-23.03,35.79-1.71,2.66-3.15,5.51-4.73,8.3,1.95,2.38,3.6,4.09,4.91,6.04,7.92,11.79,6.51,24.9-3.85,34.58-8.45,7.9-18.6,11.03-30.04,9.55-4.61-.6-9.14-1.8-13.66-2.71-1.29,1.06-2.5,1.84-3.45,2.85-32.71,34.56-69.89,63.68-109.59,89.69-9.49,6.22-19.38,11.8-29,17.83-1.22,.76-1.85,2.46-4.01,5.48,4.36-.86,6.67-1.03,8.77-1.78,11.13-3.96,22.34-7.73,33.28-12.16,48.55-19.68,92.81-46.94,134.6-78.15,36.05-26.93,70.05-56.32,100.93-89.19,27.21-28.96,54.41-57.96,82.04-86.52,26.12-27,55.49-49.94,88.19-68.65,24.24-13.87,47.67-29.03,69.64-46.35,17.18-13.55,32.68-28.76,45.88-46.21,4.5-5.95,8.37-12.39,12.64-18.78-1.8-2.13-2.84-3.7-4.2-4.9-37.23-32.78-67.84-71.28-94.96-112.47-19.76-30-37.73-61.17-56.48-91.83-8.88-14.52-17.65-29.12-26.64-43.57-1.64-2.64-4.1-4.78-6.17-7.14-12.36,10.54-19.96,11.34-30.84,3.46-8.83-6.4-14.08-15.36-16.38-25.79-2.07-9.42-2.16-18.83,4.41-27.06,.78-.97,.71-2.62,1.27-4.93-4.16-4.58-8.36-9.64-13-14.27-87.22-87-193.51-129.69-315.61-135.29-31.74-1.45-63.43,.02-94.74,5.82-17.64,3.26-35.13,7.36-52.66,11.22-2.09,.46-3.98,1.83-7.99,3.76,4.81,1.24,7.35,1.9,9.88,2.56,15.13,3.9,30.04,8.48,44.04,15.52,7.59,3.81,14.98,8.07,22.19,12.54,3.15,1.95,5.77,4.84,8.34,7.59,.76,.82,1.14,3.24,.59,3.77-1.16,1.12-3.18,2.23-4.63,2-3.23-.51-6.36-1.72-9.46-2.86-23.16-8.46-46.93-14.48-71.32-18.18-30.2-4.59-60.3-5.17-90.29,1.43-22.91,5.04-44.31,13.52-62.63,28.55-5.41,4.44-11.18,8.72-14.42,16.43,2.47-.22,4.35-.04,5.99-.59,22.08-7.35,44.69-11.91,67.85-14.31,27.01-2.81,53.96-2.57,80.64,2.06,77.98,13.52,141.08,52.46,190.47,113.79,30.74,38.17,50.95,81.64,62.77,129.1,1.12,4.5,2.42,8.96,3.71,13.73Zm-489.15,217.73c-2.8,11.53-5.61,22.5-8.12,33.53-7.35,32.24-8.63,64.58-1.63,97.09,6.11,28.39,15.55,55.7,29.43,81.07,20.4,37.31,39.71,75.29,63.7,110.59,3.2,4.7,6.01,9.46,10.64,12.76,4.34,3.09,8.64,6.48,13.46,8.62,24.84,11.05,50.73,13.78,77.45,8.86,33.72-6.21,65.51-18.25,96.56-32.33,18.99-8.61,36.76-19.44,54.12-30.98,11.67-7.76,21.24-17.17,27.36-29.97,2.44-5.11,5.63-9.85,8.41-14.8,38.66-68.94,67.07-141.73,83.16-219.27,4.24-20.43,3.95-40.47-1.22-60.41-6.88-26.54-18.66-50.5-39.22-69.43-9.13-8.4-19.55-14.84-30.41-20.71-31.8-17.15-61.1-37.75-87.48-62.55-27.08-25.46-49.69-54.48-70.15-85.32-2.08-3.14-3.58-6.88-7.65-9.36,3.76,22.03,12.39,43.44,26.02,64.74,11,17.2,23.47,33.22,38.32,47.32,1.87,1.78,4.83,3.57,2,7.32-2.06,0-4.46,.37-6.71-.06-34.54-6.53-66.07-19.79-93.08-42.64-36.96-31.28-57.72-71.77-66.7-118.81-1.14-5.95-2.17-11.91-3.28-17.99-23.23,10.32-60.82,47.35-81.14,80.07-21.54,34.68-33.12,72.6-37.12,113.81,4.21,0,7.41,.01,10.6,0,8.03-.04,16.12-.68,24.09,0,15.14,1.27,28.21,7.76,39.07,18.25,2.92,2.82,5.13,6.78,6.53,10.63,1.64,4.52-2.14,9.88-6.94,10.47-2.74,.34-5.7,.12-8.39-.55-4.11-1.04-8.11-2.57-12.08-4.09-14.43-5.52-29.39-7.01-44.66-5.62-2.59,.24-5.08,1.58-7.95,2.53,2.43,24.26,4.78,47.72,7.15,71.18,.6,5.93,4.48,9.19,9.58,11.22,12.88,5.13,26.04,8.67,40.09,6.02,5.1-.96,10.16-2.16,15.26-3.14,5.12-.98,8.23,.23,9.7,3.6,1.72,3.97,.64,7.36-2.23,10.34-.98,1.02-1.97,2.07-3.1,2.91-17.36,12.83-36.02,20.82-58.23,15.44-4.57-1.1-9.17-2.3-15.19-.34Zm302.36,407.27c-.36,.74-.72,1.47-1.09,2.21,2.47,2.09,4.93,4.2,7.41,6.28,18.65,15.62,34.05,34.04,46.95,54.59,7.32,11.66,13.11,24.06,16.89,37.31,1.55,5.43,2.71,11,3.63,16.57,.25,1.54-.53,4.11-1.67,4.79-1.09,.65-3.61-.1-4.91-1.05-1.86-1.36-3.27-3.38-4.7-5.26-5.44-7.14-10.87-14.29-16.19-21.52-13.73-18.68-28.32-36.64-44.51-53.26-1.85-1.89-3.09-4.89-7.27-4.45,.21,3.61-.05,7.33,.71,10.84,3.28,15.22,6.21,30.55,10.45,45.5,9.63,33.92,30.08,59.65,61.3,76.23,17.08,9.07,34.7,17.12,52.12,25.55,1.6,.78,3.5,.94,5.79,1.53,0-3.9,.37-7.2-.06-10.4-1.85-13.57-3.5-27.19-6.04-40.64-3.16-16.69-6.86-33.29-13.02-49.23-18.18-47.03-51.06-78.58-99.06-94.25-2.16-.7-4.47-.9-6.72-1.34Zm-62.13-758.21c.51,35.28,65.27,127.34,106.26,149.82-2.37-3.58-3.84-5.84-5.35-8.07-6.62-9.78-13.63-19.33-19.79-29.39-6.16-10.06-11.53-20.6-17.1-31-1.04-1.94-1.92-4.35,.97-5.87,21.83,11.17,41.01,25.62,55.95,42.75,10.25,11.75,20.13,23.83,30.23,35.72,2.06,2.43,4.35,4.66,8.87,9.48-2.26-6.59-3.01-10.26-4.69-13.43-6.84-12.94-13.75-25.84-21.04-38.53-5.17-9.01-11.07-17.59-16.46-26.48-1.34-2.21-3.23-4.68-.97-7.88,4.12-.89,6.67,2.4,9.84,4.09,3.57,1.91,6.16,6.07,12.18,4.74-.91-6.91-2.74-13.65-4.41-20.44-.6-2.45-1.94-5.44,2.62-8.05,19.93,18.73,32.64,43.89,52.26,63.34-.73-4.81-1.79-9.41-3.75-13.57-6.85-14.5-13.43-29.18-21.19-43.2-15.97-28.87-37.38-53.33-62.92-74.16-1.74-1.42-3.42-4.81-6.9-2.1,4.02,7.6,8.16,15.02,11.89,22.64,2.61,5.33,6.68,10.45,2.73,17.16-.86,1.46,.85,4.41,1.32,6.68,1.14,5.54,2.42,11.06,3.27,16.65,.31,2.02-.47,4.21-.74,6.18-5.6,.56-7.52-3.26-10.19-5.63-12.73-11.29-25.32-22.74-38.04-34.03-1.81-1.61-3.45-4.04-7.53-3.34,2.63,5.07,4.94,9.61,7.32,14.1,6.42,12.1,12.92,24.16,19.24,36.32,.71,1.36,.44,3.23,.8,6.4-4.16-2.63-7.11-4.09-9.59-6.13-8.03-6.6-15.87-13.43-23.85-20.1-.54-.45-1.64-.24-2.59-.35-1.35,1.79-2.72,3.63-4.08,5.44-4.9-.49-7.47-4.19-10.01-7.39-8.51-10.73-16.61-21.77-25.01-32.59-2.76-3.56-4.14-8.6-9.55-9.79Zm-168.38,900.9c34.4,.3,64.95-6.09,92.18-24.43,24.42-16.44,40.84-39.02,49.39-67.22,2.23-7.35,2.12-7.38-6.51-12.86-7.28,6.56-14.37,13.52-22.06,19.74-11.38,9.22-23.1,18.03-34.87,26.75-3.37,2.5-7.38,4.2-11.25,5.93-1.04,.47-3.27,.15-3.85-.63-.99-1.32-1.8-3.47-1.43-4.96,.66-2.7,1.85-5.46,3.51-7.68,6.23-8.3,12.1-17.02,19.31-24.4,10.22-10.47,21.53-19.88,32.35-29.76,2.4-2.19,4.74-4.44,7.29-6.84-.84-3.5-1.58-6.56-2.23-9.3-1.21-.26-1.72-.53-2.13-.43-23.2,5.94-43.53,17.69-62.99,31.19-.73,.51-1.18,1.42-1.75,2.15-8.73,11.16-18.14,21.92-24.17,34.87-10.14,21.76-19.86,43.73-30.78,67.86Zm738.61-231.3c16.96-24.13,27.15-50.8,31.12-79.65,5.19-37.68,.77-74.43-12.54-110.08-1.24-3.31-1.65-7.33-8.3-8.78,1.85,12.29,2.53,23.81,3.18,35.34,.66,11.77,1.4,23.64,.6,35.36-.79,11.51,0,23.49-5.46,35.22-7.5-5.97-7.26-15.57-12.91-22.76-1.95,3.23-3.51,5.83-5.68,9.42-5.74-15.82-7.92-31.88-16.38-45.86-3.96,3.53-2.3,7.55-2.38,11.09-.65,28.35-1.3,56.68-6.94,84.62-5.06,25.04-11.79,49.59-21.27,73.35-1.12,2.82-2.7,5.52-2.26,9.03,1.05-.49,1.6-.58,1.87-.9,1.52-1.8,3.07-3.58,4.42-5.49,14.25-20.18,25.78-41.78,33.7-65.22,3.02-8.94,5.66-18.02,8.67-26.96,.69-2.05,2.22-3.81,3.47-5.87,8.1,7.98,9.8,11.04,11.01,21.27,1.62,13.7,.88,27.36-1.32,40.95-.86,5.31-1.73,10.62-2.6,15.93ZM636.92,389.99c.67-8.82,5.28-16.53,9.83-24.14,6.35-10.62,14.54-19.8,23.39-28.41,1.38-1.34,4.07-2.53,2.43-5.43-48.03,16.5-87.85,85.22-80.4,138.57,3.11-1.23,3.25-4.22,4.02-6.78,2.2-7.23,3.84-14.68,6.62-21.68,3.3-8.32,7.45-16.31,11.52-24.3,.69-1.36,3.17-3.08,4.27-2.75,4.69,1.39,6.81-1.79,9.7-4.18,1.88-1.56,4.49-2.23,6.76-3.3,2.52,4.84,.24,8.24-.8,11.77-4.57,15.48-7.46,31.26-8.25,47.39-.07,1.33-1.38,3.88,1.73,4.06,.46-.36,1-.56,1.16-.93,.75-1.71,1.46-3.44,2.07-5.2,12.4-35.91,32-67.34,58.69-94.37,1.99-2.02,4.06-3.98,5.81-6.2,1.04-1.32,2.49-3.03,.12-4.93-5.3,.04-9.71,2.91-13.86,5.73-8.21,5.56-16.07,11.64-24.03,17.55-3.79,2.82-7.33,6.01-11.28,8.56-2.86,1.85-6.2,2.48-9.51-1.04Zm283.12,704.85c-14.38-2.53-26.54-.88-38.67,.69-10.53,1.37-18.13,8.48-19.92,18.95-1.2,7-.98,14.07,1.07,21.02,5.86,19.87,23.52,29.29,44.72,23.28-1.51-21.74,1.3-42.95,12.81-63.94Zm455.83-152.42c-4.74,19.06-8.09,34.74-12.61,50.07-4.66,15.84-9.78,31.62-15.96,46.92-5.93,14.68-13.46,28.72-20.57,43.62,37.29-18.37,64.58-79.92,49.14-140.61Zm-61.12,45.62c-8.64,14.4-16.21,26.92-23.69,39.51-13.81,23.26-29.62,44.96-49.29,63.7-1.33,1.26-4.38,2.36-2.47,5.38,35.03-8.26,78.63-57.04,75.44-108.59ZM829.37,471.44c-5.22-16.59-10.46-33.18-15.67-49.77-5.2-16.58-7.93-33.87-14.42-52.52-5.96,16.94-4.38,31.8-1.52,46.63,4.22,21.91,14.49,40.62,31.6,55.66Zm-205.08,589.94c8.02,1.41,13.9,.15,19.73-2.08,12.37-4.75,19.03-13.47,19.05-26.88,0-2.19,.31-4.81-2.72-4.98-11.82,11.13-23.4,22.04-36.05,33.95Z"/>
    <path fill="#f9f1da" d="M1129.28,507.34c-1.29-4.77-2.59-9.23-3.71-13.73-11.82-47.46-32.03-90.93-62.77-129.1-49.39-61.34-112.49-100.27-190.47-113.79-26.68-4.63-53.63-4.87-80.64-2.06-23.15,2.41-45.77,6.96-67.85,14.31-1.64,.55-3.53,.37-5.99,.59,3.23-7.71,9.01-11.99,14.42-16.43,18.33-15.04,39.72-23.51,62.63-28.55,29.99-6.6,60.1-6.01,90.29-1.43,24.39,3.7,48.16,9.72,71.32,18.18,3.1,1.13,6.24,2.35,9.46,2.86,1.45,.23,3.47-.88,4.63-2,.56-.54,.18-2.96-.59-3.77-2.56-2.74-5.19-5.63-8.34-7.59-7.21-4.48-14.61-8.73-22.19-12.54-14-7.04-28.91-11.61-44.04-15.52-2.54-.65-5.07-1.31-9.88-2.56,4.01-1.93,5.9-3.3,7.99-3.76,17.53-3.86,35.02-7.95,52.66-11.22,31.31-5.79,62.99-7.27,94.74-5.82,122.1,5.6,228.4,48.3,315.61,135.29,4.64,4.63,8.84,9.68,13,14.27-.56,2.32-.5,3.96-1.27,4.93-6.57,8.22-6.48,17.64-4.41,27.06,2.3,10.44,7.55,19.39,16.38,25.79,10.87,7.88,18.47,7.08,30.84-3.46,2.07,2.36,4.53,4.5,6.17,7.14,8.99,14.46,17.76,29.05,26.64,43.57,18.75,30.66,36.73,61.83,56.48,91.83,27.13,41.19,57.73,79.69,94.96,112.47,1.36,1.2,2.4,2.78,4.2,4.9-4.28,6.4-8.14,12.83-12.64,18.78-13.2,17.45-28.7,32.67-45.88,46.21-21.97,17.33-45.41,32.48-69.64,46.35-32.7,18.71-62.07,41.65-88.19,68.65-27.63,28.56-54.83,57.55-82.04,86.52-30.88,32.87-64.88,62.26-100.93,89.19-41.79,31.21-86.05,58.47-134.6,78.15-10.94,4.43-22.15,8.21-33.28,12.16-2.1,.75-4.41,.92-8.77,1.78,2.16-3.02,2.79-4.71,4.01-5.48,9.61-6.03,19.51-11.62,29-17.83,39.7-26.01,76.88-55.13,109.59-89.69,.96-1.01,2.16-1.79,3.45-2.85,4.51,.91,9.05,2.11,13.66,2.71,11.44,1.48,21.59-1.65,30.04-9.55,10.36-9.68,11.77-22.79,3.85-34.58-1.31-1.95-2.96-3.66-4.91-6.04,1.58-2.79,3.01-5.64,4.73-8.3,7.68-11.93,15.8-23.59,23.03-35.79,5.04-8.51,9-17.67,13.17-26.66,.85-1.83,.5-4.21,.68-6.16-4.41-1.36-6.18,1.17-7.96,3.22-9.28,10.74-18.36,21.65-27.69,32.35-23.03,26.41-47.11,51.83-72.77,75.69-5.45,5.07-11.69,9.32-17.69,13.76-6.39,4.73-10.48,11.71-17.23,16.27-6.13,4.14-10.91,10.23-16.5,15.21-3,2.67-6.47,4.8-10.16,7.49-.22-1.95-.67-2.99-.34-3.48,2.68-3.88,5.29-7.84,8.32-11.44,33.61-40.07,60.92-84.15,83.59-131.15,18.76-38.9,33.15-79.36,41.8-121.74,1.79-8.79,3.26-17.67,4.39-26.57,.58-4.58,.1-9.3,.1-13.6-3.57-1.79-5.19-.02-6.17,2.18-1.91,4.31-3.61,8.73-5.23,13.16-17.56,47.98-36.21,95.52-60.3,140.67-36.07,67.62-79.85,129.62-135.45,182.8-5.47,5.23-11.27,10.11-17.05,14.99-1.64,1.38-3.76,2.19-6.6,3.78,0-2.43-.51-4.04,.07-4.8,53.75-69.85,90.37-148.29,116.67-231.93,.28-.89,.67-1.75,1.28-3.34,2.37-.28,5.11-.99,7.81-.85,21.5,1.12,33.99-22.07,29.49-39.35-1.84-7.06-5.03-13.25-10.8-17.89-2.57-2.06-5.27-3.95-8.56-6.39,.36-3.91,.36-8.15,1.18-12.22,10.57-52.72,13.56-105.95,10.94-159.56-.18-3.71-.02-7.44-.02-11.99,4.04,0,7.32,.38,10.48-.07,12.76-1.81,21.51-10.19,23.78-22.9,2.16-12.14,.42-23.6-7.29-33.64-9.01-11.75-18.51-13.9-32.3-7.56-1.22,.56-2.57,.84-4.41,1.43Zm95.96,108.7c.59,7.21,1.79,14.16,5.83,20.27,8,12.12,21.78,14.26,33.1,5.32,12.11-9.56,19.31-35.97,5.76-52.72-9.98-12.34-24.89-12.49-35.25-.4-6.82,7.96-8.87,17.52-9.45,27.53Zm133.32,16.44c.3,1.86,.6,4.2,1.05,6.51,1.81,9.43,6.09,17.11,16.02,19.69,9.96,2.58,18.68-.08,25.81-7.69,10.18-10.87,13.26-28.74,7.35-42.41-3.48-8.04-9.35-13.18-18.06-14.14-7.97-.88-14.83,2.15-20.46,7.86-8.11,8.23-10.9,18.55-11.72,30.19Zm-196.16-291.68c-13.54-.3-21.4,5.99-23.63,16.85-3.5,17.09,6.6,36.14,22.71,42.95,8.37,3.54,16.64,4.01,24.18-1.64,7.96-5.97,10.28-14.57,8.79-23.98-2.22-13.94-10-24.29-22.4-30.9-3.65-1.95-7.93-2.72-9.65-3.29Zm166.89,111.11c-.61-13.42-5.11-24.7-14.78-33.2-3.72-3.27-8.81-5.84-13.66-6.78-12.01-2.32-22.23,6.16-24.99,19.61-3.22,15.69,5.78,34.47,20.11,41.95,14.55,7.6,27.51,2.05,31.95-13.78,.76-2.7,.98-5.55,1.37-7.8Zm-17.24,340.36c-1.52,20.53,14.66,28.82,29.76,24.38,14.97-4.4,31.89-27.46,21.96-49.75-5.16-11.58-16.02-15.98-28.04-11.85-5.52,1.9-9.96,5.23-13.53,9.75-6.3,7.99-9.9,17-10.14,27.47Zm-221.93-534.4c2.08-.38,4.9-.69,7.61-1.42,12.77-3.44,17.27-14.22,9.79-24.98-9.91-14.26-24.08-20.67-41.38-19.93-2.77,.12-5.63,.92-8.22,1.96-8.83,3.54-12.38,12.37-8.28,20.88,1.41,2.92,3.39,5.73,5.65,8.06,9.3,9.57,21.03,13.99,34.83,15.44Zm412.81,286.33c.14-16.85-12.56-35.28-28.05-40.72-11.28-3.96-19.9,1.36-21.29,13.15-2.06,17.41,10.97,37.72,27.76,43.28,12.59,4.17,21.47-2.3,21.58-15.71Zm-248.56-259.89c.94-.05,1.89-.05,2.83-.15,11.45-1.19,17.44-10.39,13.79-21.17-5.11-15.1-26.92-28.79-42.84-26.89-12.07,1.44-17.77,11.22-13.16,22.61,5.69,14.09,23.82,25.87,39.39,25.6Zm244.68,387.82c-2.21,.23-5.06,.28-7.8,.86-14.07,2.95-24.44,16.26-23.1,29.47,.67,6.58,4.21,10.31,10.83,10.67,3.72,.21,7.59,.12,11.21-.65,9.92-2.12,18.62-6.71,24.71-15.03,8.44-11.5,.15-24.89-11.03-25-1.41-.01-2.81-.18-4.82-.32Z"/>
    <path fill="#f9f1da" d="M640.13,725.07c6.02-1.95,10.62-.76,15.19,.34,22.22,5.37,40.87-2.62,58.23-15.44,1.13-.84,2.11-1.89,3.1-2.91,2.87-2.98,3.95-6.37,2.23-10.34-1.46-3.37-4.58-4.58-9.7-3.6-5.1,.98-10.16,2.18-15.26,3.14-14.05,2.65-27.21-.88-40.09-6.02-5.1-2.03-8.98-5.29-9.58-11.22-2.36-23.46-4.71-46.93-7.15-71.18,2.87-.94,5.36-2.29,7.95-2.53,15.27-1.39,30.22,.1,44.66,5.62,3.97,1.52,7.97,3.06,12.08,4.09,2.68,.68,5.64,.89,8.39,.55,4.79-.59,8.58-5.94,6.94-10.47-1.4-3.85-3.61-7.82-6.53-10.63-10.86-10.49-23.94-16.98-39.07-18.25-7.97-.67-16.06-.03-24.09,0-3.19,.02-6.39,0-10.6,0,4.01-41.2,15.59-79.13,37.12-113.81,20.32-32.72,57.91-69.75,81.14-80.07,1.11,6.08,2.14,12.04,3.28,17.99,8.98,47.03,29.74,87.52,66.7,118.81,27.01,22.86,58.54,36.11,93.08,42.64,2.25,.43,4.65,.06,6.71,.06,2.82-3.75-.13-5.55-2-7.32-14.85-14.1-27.31-30.12-38.32-47.32-13.63-21.3-22.26-42.71-26.02-64.74,4.07,2.47,5.57,6.22,7.65,9.36,20.46,30.85,43.07,59.87,70.15,85.32,26.38,24.8,55.68,45.4,87.48,62.55,10.87,5.86,21.28,12.3,30.41,20.71,20.56,18.93,32.35,42.89,39.22,69.43,5.16,19.94,5.45,39.98,1.22,60.41-16.09,77.54-44.5,150.33-83.16,219.27-2.78,4.95-5.96,9.69-8.41,14.8-6.12,12.79-15.69,22.21-27.36,29.97-17.36,11.54-35.13,22.37-54.12,30.98-31.06,14.09-62.84,26.13-96.56,32.33-26.73,4.92-52.62,2.19-77.45-8.86-4.82-2.14-9.12-5.53-13.46-8.62-4.63-3.3-7.44-8.06-10.64-12.76-23.98-35.3-43.29-73.28-63.7-110.59-13.87-25.37-23.32-52.69-29.43-81.07-6.99-32.51-5.71-64.85,1.63-97.09,2.51-11.03,5.32-22,8.12-33.53Zm241.8-142c-5.2,.51-13.69,1.14-22.13,2.27-4.66,.62-9.36,1.68-13.78,3.27-4.85,1.75-9.74,3.82-13.98,6.69-6.5,4.39-8.58,11.12-6.37,17.23,2.39,6.59,7.38,9.87,15.75,9.18,5.6-.46,11.18-1.82,16.65-3.23,26.24-6.75,52.49-5.95,78.71-.23,17.65,3.85,34.27,10.6,50.37,18.74,3.72,1.88,7.77,3.22,11.8,4.38,2.34,.68,4.8-2.69,3.39-4.61-3.04-4.15-6-8.55-9.82-11.9-30.67-26.86-66.2-41.51-110.59-41.81Zm-129.02,330.27c-3.32-1.29-6.2-1.91-8.52-3.39-8.06-5.13-16.62-6.09-25.82-4.28-3.21,.63-6.57,.56-9.87,.69-2.96,.12-6.02,.57-6.98,3.66-1.01,3.25-.29,6.61,2.26,9.16,1.32,1.32,2.83,2.51,4.43,3.46,11.04,6.49,22.71,11.58,35.32,13.98,17.25,3.29,34.64,3.53,52.12,1.67,22.6-2.4,44.62-7.12,65.92-15.5,2.2,1,4.3,2.01,6.44,2.92,3.25,1.39,6.52,1.57,9.21-1.05,2.6-2.53,2.89-5.74,1.87-9.17-2.86-9.66-9.02-16.4-18.15-20.44-4.17-1.85-7.55-.07-8.34,4.4-.47,2.65-.51,5.37-.74,8.08-12.83,4.96-25.3,7.06-38.12,5.38-10.26-1.34-20.51-3.14-30.54-5.64-7.79-1.94-14.88-1.33-21.95,2.07-2.54,1.22-5.1,2.39-8.55,4Zm-9.6-242.21c-3.53,5.37-3.31,10.67-3.78,15.58-3.07,32.04-15.81,60.07-34.93,85.51-4.54,6.05-9.54,11.75-14.04,17.83-9.17,12.39-9.21,25.53-1.81,38.58,2.75,4.85,6.62,9.25,10.64,13.16,9.77,9.49,22.09,14.39,34.99,17.83,5.68,1.52,9.56-2.65,7.61-8.09-1.08-3-2.89-5.97-5.08-8.27-2.92-3.05-6.73-5.22-9.81-8.13-4.78-4.53-9.74-9.01-13.77-14.17-5.14-6.6-5.3-13.98-.54-21.11,2.62-3.93,5.41-7.75,8.15-11.6,18.28-25.77,27.69-54.61,29.63-85.98,.56-9.03,.09-18-3.41-26.5-.63-1.53-2.19-2.68-3.85-4.62Zm86.1,58.72c4.32,4.27,8.89,5.42,13.55,6.08,13.06,1.85,26.12,3.68,39.21,5.26,28.56,3.46,53.99-5.66,77.89-20.11,4.77-2.88,8.94-6.89,12.88-10.89,1.27-1.29,1.85-4.72,1.03-6.23-.83-1.51-3.79-2.48-5.85-2.54-2.75-.08-5.53,.91-8.29,1.49-9.23,1.93-18.37,4.43-27.68,5.71-24.22,3.34-48,2.17-70.51-8.78-2.96-1.44-5.93-2.94-9.04-4-6.23-2.12-10.16,1-9.55,7.77,.41,4.58,1.53,9.09,2.2,12.89-3.93,6.71-13.01,5.45-15.84,13.33Zm-18.51,234.76c-6.6,.75-11.25,.92-15.75,1.85-15.97,3.28-31.79,3.04-47.55-1.22-3.17-.86-6.36-1.74-9.6-2.23-3.65-.55-6.66,3.22-4.88,6.37,1.8,3.19,4.03,6.39,6.78,8.75,17.66,15.19,49.7,12.93,65.7-.63,1.75-1.48,3.34-3.38,4.38-5.4,.76-1.49,.5-3.51,.92-7.49Zm-48.16-134.39c-1.93,.59-4.68,1.21-7.25,2.29-2.57,1.09-2.85,5.78-.38,7.13,7.94,4.34,16.29,7.54,25.53,7.03,1.41-.08,3.13-1.86,3.91-3.28,.48-.87-.18-2.89-.98-3.84-5.18-6.18-12.23-8.5-20.83-9.33Z"/>
    <path fill="#f9f1da" d="M942.49,1132.34c2.24,.44,4.56,.64,6.72,1.34,48,15.67,80.89,47.21,99.06,94.25,6.16,15.94,9.86,32.54,13.02,49.23,2.55,13.45,4.2,27.07,6.04,40.64,.44,3.2,.06,6.51,.06,10.4-2.28-.58-4.18-.75-5.79-1.53-17.42-8.43-35.04-16.47-52.12-25.55-31.21-16.58-51.67-42.31-61.3-76.23-4.24-14.95-7.17-30.29-10.45-45.5-.76-3.51-.5-7.23-.71-10.84,4.18-.44,5.42,2.56,7.27,4.45,16.2,16.61,30.79,34.57,44.51,53.26,5.32,7.23,10.75,14.38,16.19,21.52,1.43,1.87,2.84,3.9,4.7,5.26,1.29,.95,3.82,1.69,4.91,1.05,1.15-.68,1.93-3.24,1.67-4.79-.92-5.57-2.08-11.14-3.63-16.57-3.78-13.25-9.57-25.65-16.89-37.31-12.9-20.55-28.3-38.97-46.95-54.59-2.48-2.08-4.94-4.19-7.41-6.28,.36-.74,.72-1.47,1.09-2.21Z"/>
    <path fill="#f9f1da" d="M880.36,374.13c5.41,1.19,6.79,6.23,9.55,9.79,8.4,10.82,16.5,21.86,25.01,32.59,2.54,3.2,5.11,6.89,10.01,7.39,1.36-1.81,2.74-3.65,4.08-5.44,.95,.11,2.05-.1,2.59,.35,7.98,6.66,15.82,13.5,23.85,20.1,2.48,2.04,5.43,3.5,9.59,6.13-.36-3.17-.09-5.04-.8-6.4-6.32-12.16-12.82-24.21-19.24-36.32-2.39-4.5-4.69-9.04-7.32-14.1,4.08-.7,5.72,1.73,7.53,3.34,12.72,11.3,25.31,22.75,38.04,34.03,2.67,2.37,4.6,6.19,10.19,5.63,.27-1.98,1.04-4.16,.74-6.18-.84-5.59-2.13-11.11-3.27-16.65-.47-2.27-2.18-5.22-1.32-6.68,3.95-6.71-.12-11.84-2.73-17.16-3.73-7.62-7.87-15.03-11.89-22.64,3.47-2.7,5.16,.68,6.9,2.1,25.54,20.84,46.95,45.3,62.92,74.16,7.76,14.02,14.34,28.7,21.19,43.2,1.97,4.16,3.02,8.75,3.75,13.57-19.63-19.46-32.33-44.61-52.26-63.34-4.56,2.61-3.22,5.61-2.62,8.05,1.67,6.79,3.5,13.53,4.41,20.44-6.03,1.32-8.61-2.83-12.18-4.74-3.17-1.7-5.72-4.99-9.84-4.09-2.26,3.2-.37,5.68,.97,7.88,5.38,8.89,11.28,17.47,16.46,26.48,7.29,12.69,14.2,25.59,21.04,38.53,1.68,3.18,2.43,6.84,4.69,13.43-4.53-4.82-6.81-7.06-8.87-9.48-10.1-11.89-19.97-23.97-30.23-35.72-14.95-17.13-34.12-31.58-55.95-42.75-2.89,1.51-2.01,3.92-.97,5.87,5.57,10.41,10.95,20.95,17.1,31,6.16,10.06,13.16,19.61,19.79,29.39,1.51,2.23,2.98,4.5,5.35,8.07-40.99-22.49-105.76-114.54-106.26-149.82Z"/>
    <path fill="#f9f1da" d="M711.97,1275.03c10.92-24.14,20.64-46.1,30.78-67.86,6.04-12.95,15.44-23.71,24.17-34.87,.57-.73,1.02-1.64,1.75-2.15,19.45-13.5,39.78-25.26,62.99-31.19,.41-.11,.92,.17,2.13,.43,.66,2.74,1.39,5.8,2.23,9.3-2.55,2.4-4.89,4.65-7.29,6.84-10.83,9.88-22.13,19.29-32.35,29.76-7.21,7.38-13.08,16.1-19.31,24.4-1.66,2.22-2.85,4.98-3.51,7.68-.37,1.49,.44,3.64,1.43,4.96,.58,.78,2.81,1.09,3.85,.63,3.87-1.73,7.87-3.43,11.25-5.93,11.78-8.71,23.49-17.53,34.87-26.75,7.69-6.22,14.78-13.19,22.06-19.74,8.63,5.48,8.73,5.51,6.51,12.86-8.55,28.2-24.97,50.78-49.39,67.22-27.23,18.33-57.78,24.73-92.18,24.43Z"/>
    <path fill="#f9f1da" d="M1450.58,1043.73c.87-5.31,1.74-10.62,2.6-15.93,2.2-13.59,2.94-27.25,1.32-40.95-1.21-10.22-2.91-13.29-11.01-21.27-1.25,2.06-2.78,3.82-3.47,5.87-3.02,8.95-5.65,18.02-8.67,26.96-7.93,23.44-19.45,45.04-33.7,65.22-1.35,1.92-2.9,3.7-4.42,5.49-.27,.32-.83,.41-1.87,.9-.44-3.51,1.13-6.21,2.26-9.03,9.48-23.76,16.22-48.31,21.27-73.35,5.64-27.94,6.3-56.27,6.94-84.62,.08-3.54-1.58-7.56,2.38-11.09,8.46,13.98,10.64,30.04,16.38,45.86,2.17-3.59,3.73-6.19,5.68-9.42,5.66,7.2,5.41,16.79,12.91,22.76,5.45-11.73,4.67-23.71,5.46-35.22,.81-11.72,.07-23.59-.6-35.36-.65-11.53-1.33-23.05-3.18-35.34,6.65,1.46,7.07,5.47,8.3,8.78,13.31,35.65,17.73,72.4,12.54,110.08-3.97,28.84-14.16,55.51-31.12,79.65Z"/>
    <path fill="#f9f1da" d="M636.92,389.99c3.31,3.52,6.64,2.89,9.51,1.04,3.96-2.55,7.49-5.75,11.28-8.56,7.96-5.92,15.83-11.99,24.03-17.55,4.15-2.81,8.56-5.69,13.86-5.73,2.37,1.89,.92,3.61-.12,4.93-1.75,2.22-3.82,4.18-5.81,6.2-26.69,27.03-46.29,58.46-58.69,94.37-.61,1.76-1.32,3.5-2.07,5.2-.16,.37-.7,.58-1.16,.93-3.11-.17-1.79-2.73-1.73-4.06,.79-16.13,3.68-31.91,8.25-47.39,1.04-3.53,3.33-6.93,.8-11.77-2.28,1.07-4.89,1.74-6.76,3.3-2.89,2.39-5.01,5.57-9.7,4.18-1.1-.33-3.58,1.39-4.27,2.75-4.07,7.99-8.21,15.98-11.52,24.3-2.78,7-4.42,14.44-6.62,21.68-.78,2.55-.91,5.54-4.02,6.78-7.45-53.35,32.37-122.07,80.4-138.57,1.63,2.91-1.05,4.09-2.43,5.43-8.85,8.61-17.04,17.79-23.39,28.41-4.55,7.61-9.16,15.32-9.83,24.14Z"/>
    <path fill="#f9f1da" d="M920.04,1094.84c-11.52,20.99-14.32,42.2-12.81,63.94-21.2,6.01-38.86-3.41-44.72-23.28-2.05-6.95-2.27-14.02-1.07-21.02,1.8-10.47,9.39-17.58,19.92-18.95,12.13-1.57,24.29-3.22,38.67-.69Z"/>
    <path fill="#f9f1da" d="M1375.87,942.42c15.44,60.69-11.85,122.24-49.14,140.61,7.11-14.9,14.64-28.94,20.57-43.62,6.18-15.3,11.3-31.08,15.96-46.92,4.52-15.33,7.87-31.01,12.61-50.07Z"/>
    <path fill="#f9f1da" d="M1314.74,988.04c3.18,51.55-40.42,100.33-75.44,108.59-1.91-3.01,1.14-4.11,2.47-5.38,19.67-18.74,35.48-40.44,49.29-63.7,7.47-12.58,15.05-25.11,23.69-39.51Z"/>
    <path fill="#f9f1da" d="M829.37,471.44c-17.11-15.04-27.38-33.75-31.6-55.66-2.86-14.84-4.45-29.69,1.52-46.63,6.49,18.64,9.22,35.93,14.42,52.52,5.21,16.6,10.44,33.18,15.67,49.77Z"/>
    <path fill="#f9f1da" d="M624.29,1061.38c12.65-11.91,24.24-22.82,36.05-33.95,3.03,.17,2.72,2.8,2.72,4.98-.02,13.42-6.68,22.14-19.05,26.88-5.83,2.23-11.71,3.49-19.73,2.08Z"/>
    <path fill="#57390e" d="M1225.24,616.04c.58-10.01,2.63-19.57,9.45-27.53,10.36-12.1,25.27-11.94,35.25,.4,13.55,16.75,6.34,43.16-5.76,52.72-11.32,8.94-25.1,6.8-33.1-5.32-4.04-6.11-5.24-13.06-5.83-20.27Z"/>
    <path fill="#57390e" d="M1358.57,632.48c.81-11.64,3.61-21.96,11.72-30.19,5.62-5.71,12.49-8.74,20.46-7.86,8.71,.97,14.59,6.1,18.06,14.14,5.91,13.67,2.83,31.55-7.35,42.41-7.13,7.61-15.86,10.27-25.81,7.69-9.93-2.57-14.22-10.26-16.02-19.69-.44-2.31-.75-4.65-1.05-6.51Z"/>
    <path fill="#57390e" d="M1162.4,340.8c1.73,.57,6,1.34,9.65,3.29,12.4,6.61,20.18,16.96,22.4,30.9,1.49,9.4-.83,18-8.79,23.98-7.54,5.66-15.81,5.18-24.18,1.64-16.11-6.81-26.21-25.86-22.71-42.95,2.23-10.86,10.09-17.15,23.63-16.85Z"/>
    <path fill="#57390e" d="M1329.29,451.91c-.38,2.25-.61,5.1-1.37,7.8-4.44,15.83-17.4,21.38-31.95,13.78-14.33-7.48-23.32-26.25-20.11-41.95,2.76-13.45,12.98-21.93,24.99-19.61,4.85,.94,9.94,3.51,13.66,6.78,9.68,8.5,14.17,19.77,14.78,33.2Z"/>
    <path fill="#57390e" d="M1312.05,792.26c.24-10.47,3.84-19.48,10.14-27.47,3.57-4.52,8.02-7.85,13.53-9.75,12.02-4.13,22.88,.27,28.04,11.85,9.93,22.29-6.99,45.35-21.96,49.75-15.1,4.44-31.27-3.85-29.76-24.38Z"/>
    <path fill="#57390e" d="M1090.12,257.86c-13.8-1.45-25.53-5.86-34.83-15.44-2.26-2.33-4.25-5.13-5.65-8.06-4.1-8.51-.55-17.34,8.28-20.88,2.6-1.04,5.45-1.84,8.22-1.96,17.3-.74,31.47,5.67,41.38,19.93,7.48,10.76,2.97,21.54-9.79,24.98-2.71,.73-5.53,1.04-7.61,1.42Z"/>
    <path fill="#57390e" d="M1502.94,544.19c-.11,13.42-8.99,19.88-21.58,15.71-16.8-5.57-29.82-25.87-27.76-43.28,1.39-11.79,10.01-17.12,21.29-13.15,15.49,5.44,28.19,23.88,28.05,40.72Z"/>
    <path fill="#57390e" d="M1254.37,284.3c-15.57,.27-33.69-11.51-39.39-25.6-4.6-11.39,1.09-21.17,13.16-22.61,15.92-1.9,37.73,11.79,42.84,26.89,3.65,10.79-2.34,19.98-13.79,21.17-.94,.1-1.88,.1-2.83,.15Z"/>
    <path fill="#57390e" d="M1499.05,672.13c2.01,.14,3.42,.3,4.82,.32,11.18,.12,19.46,13.5,11.03,25-6.1,8.32-14.8,12.91-24.71,15.03-3.62,.77-7.49,.85-11.21,.65-6.62-.36-10.16-4.09-10.83-10.67-1.34-13.21,9.03-26.52,23.1-29.47,2.74-.57,5.59-.63,7.8-.86Z"/>
    <path fill="#57390e" d="M881.93,583.07c44.39,.3,79.92,14.96,110.59,41.81,3.82,3.35,6.78,7.75,9.82,11.9,1.41,1.92-1.05,5.29-3.39,4.61-4.02-1.16-8.07-2.5-11.8-4.38-16.1-8.14-32.72-14.89-50.37-18.74-26.22-5.72-52.48-6.52-78.71,.23-5.47,1.41-11.05,2.77-16.65,3.23-8.37,.68-13.36-2.6-15.75-9.18-2.21-6.11-.13-12.84,6.37-17.23,4.24-2.87,9.13-4.94,13.98-6.69,4.42-1.59,9.11-2.65,13.78-3.27,8.43-1.13,16.93-1.76,22.13-2.27Z"/>
    <path fill="#57390e" d="M752.91,913.35c3.45-1.61,6.01-2.77,8.55-4,7.07-3.41,14.16-4.01,21.95-2.07,10.03,2.49,20.28,4.29,30.54,5.64,12.82,1.68,25.28-.42,38.12-5.38,.24-2.71,.28-5.43,.74-8.08,.79-4.46,4.17-6.25,8.34-4.4,9.13,4.05,15.29,10.79,18.15,20.44,1.02,3.43,.73,6.64-1.87,9.17-2.68,2.61-5.95,2.44-9.21,1.05-2.14-.92-4.25-1.92-6.44-2.92-21.31,8.38-43.32,13.11-65.92,15.5-17.48,1.85-34.87,1.62-52.12-1.67-12.61-2.4-24.27-7.49-35.32-13.98-1.6-.94-3.12-2.14-4.43-3.46-2.55-2.55-3.27-5.91-2.26-9.16,.97-3.09,4.02-3.54,6.98-3.66,3.3-.13,6.66-.06,9.87-.69,9.19-1.81,17.76-.85,25.82,4.28,2.32,1.48,5.19,2.1,8.52,3.39Z"/>
    <path fill="#57390e" d="M743.31,671.14c1.66,1.95,3.22,3.09,3.85,4.62,3.5,8.5,3.97,17.48,3.41,26.5-1.94,31.38-11.35,60.22-29.63,85.98-2.74,3.85-5.53,7.67-8.15,11.6-4.76,7.13-4.6,14.51,.54,21.11,4.03,5.17,8.98,9.64,13.77,14.17,3.08,2.92,6.89,5.08,9.81,8.13,2.2,2.3,4.01,5.27,5.08,8.27,1.96,5.44-1.92,9.6-7.61,8.09-12.9-3.44-25.23-8.34-34.99-17.83-4.03-3.91-7.9-8.31-10.64-13.16-7.4-13.05-7.35-26.19,1.81-38.58,4.5-6.08,9.5-11.79,14.04-17.83,19.12-25.44,31.86-53.47,34.93-85.51,.47-4.9,.25-10.2,3.78-15.58Z"/>
    <path fill="#57390e" d="M829.41,729.86c2.83-7.88,11.92-6.62,15.84-13.33-.67-3.8-1.79-8.32-2.2-12.89-.61-6.78,3.32-9.9,9.55-7.77,3.11,1.06,6.08,2.55,9.04,4,22.51,10.95,46.29,12.12,70.51,8.78,9.31-1.28,18.46-3.78,27.68-5.71,2.76-.58,5.54-1.57,8.29-1.49,2.06,.06,5.02,1.03,5.85,2.54,.83,1.51,.25,4.93-1.03,6.23-3.94,4-8.11,8.01-12.88,10.89-23.91,14.45-49.34,23.56-77.89,20.11-13.09-1.58-26.15-3.42-39.21-5.26-4.67-.66-9.23-1.81-13.55-6.08Z"/>
    <path fill="#57390e" d="M810.9,964.62c-.43,3.98-.16,6-.92,7.49-1.03,2.03-2.63,3.92-4.38,5.4-16,13.56-48.04,15.82-65.7,.63-2.75-2.37-4.97-5.56-6.78-8.75-1.77-3.14,1.23-6.92,4.88-6.37,3.24,.49,6.43,1.37,9.6,2.23,15.76,4.25,31.58,4.49,47.55,1.22,4.5-.92,9.14-1.1,15.75-1.85Z"/>
    <path fill="#57390e" d="M762.75,830.24c8.6,.83,15.66,3.16,20.83,9.33,.8,.96,1.46,2.98,.98,3.84-.78,1.43-2.5,3.2-3.91,3.28-9.23,.51-17.59-2.7-25.53-7.03-2.47-1.35-2.19-6.04,.38-7.13,2.56-1.08,5.32-1.7,7.25-2.29Z"/>
  </g>
  </g>
</svg>
